PathFileType	4	(X/Y/Z)	KinectSkeleton.trc																																																	
DataRate	CameraRate	NumFrames	NumMarkers	Units	OrigDataRate	OrigDataStartFrame	OrigNumFrames																																													
60	60	24	17	mm	60	197	300																																													
Frame#	Time	Neck			ShoulderMid			R.Shoulder			L.Shoulder			R.Elbow			L.Elbow			R.Wrist			L.Wrist			HipCenter			R.Hip			L.Hip			R.Knee			L.Knee			R.Ankle			L.Ankle			R.Foot			L.Foot		
		X1	Y1	Z1	X2	Y2	Z2	X3	Y3	Z3	X4	Y4	Z4	X5	Y5	Z5	X6	Y6	Z6	X7	Y7	Z7	X8	Y8	Z8	X9	Y9	Z9	X10	Y10	Z10	X11	Y11	Z11	X12	Y12	Z12	X13	Y13	Z13	X14	Y14	Z14	X15	Y15	Z15	X16	Y16	Z16	X17	Y17	Z17
																																																				
197	10.331	-1868.877	1094.548	272.171	-1868.877	1094.548	272.171	-1863.678	1013.676	438.048	-1854.671	1002.762	100.144	-1944.721	741.238	510.557	-1917.868	725.69	54.104	-1877.117	506.416	523.266	-1830.349	500.962	69.042	-1885.155	536.036	300.365	-1890.223	541.193	385.719	-1879.535	530.318	205.711	-1940.653	131.012	438.449	-1929.449	117.492	173.616	-2030.853	-259.932	473.947	-2007.297	-272.361	144.852	-1899.732	-369.322	529.493	-1839.52	-370.494	127.192
198	10.38	-1868.028	1094.493	264.351	-1868.028	1094.493	264.351	-1857.899	1015.411	431.176	-1849.63	1001.845	92.95	-1939.029	743.094	506.418	-1918.465	724.72	51.898	-1874.521	506.878	519.032	-1829.966	500.272	72.28	-1879.033	534.663	294.182	-1882.941	539.507	379.791	-1874.7	529.293	199.246	-1937.154	129.476	436.517	-1928.07	115.659	172.471	-2033.259	-260.615	475.116	-2007.729	-275.044	149.493	-1901.828	-371.141	528.834	-1838.529	-371.621	132.427
199	10.424	-1864.753	1096.049	261.407	-1864.753	1096.049	261.407	-1855.96	1014.158	427.811	-1847.443	1003.138	89.098	-1937.366	741.398	504.64	-1917.116	725.017	50.07	-1871.32	504.934	519.039	-1827.774	500.131	70.719	-1876.248	534.859	291.541	-1882.031	540.372	377.265	-1869.835	528.745	196.476	-1934.129	129.104	436.331	-1926.479	114.16	171.306	-2032.334	-261.761	474.677	-2008.875	-277.261	149.031	-1899.106	-370.155	530.126	-1837.199	-370.667	132.209
200	10.471	-1862.444	1095.415	257.483	-1862.444	1095.415	257.483	-1853.001	1014.63	424.485	-1843.479	1002.678	85.607	-1932.08	741.353	501.772	-1915.331	724.99	47.713	-1868.198	504.458	518.214	-1825.2	500.375	67.543	-1872.269	534.158	285.277	-1877.947	538.353	371.073	-1865.974	529.506	190.132	-1933.322	127.825	431.933	-1923.306	114.897	167.892	-2030.636	-262.816	474.149	-2006.99	-276.353	148.438	-1900.162	-374.469	529.61	-1835.73	-370.596	132.319
201	10.517	-1854.163	1091.206	249.909	-1854.163	1091.206	249.909	-1845.503	1012.612	417.201	-1839.617	999.573	77.462	-1923.587	739.198	492.593	-1911.181	722.597	38.529	-1857.188	503.324	505.535	-1815.251	500.711	55.297	-1862.005	531.208	279.142	-1867.592	536.122	364.722	-1855.81	525.758	184.238	-1925.775	127.117	427.061	-1919.963	112.889	165.354	-2031.301	-260.036	473.222	-2010.057	-276.24	149.97	-1901.553	-372.7	527.069	-1841.781	-374.455	131.415
202	10.564	-1852.646	1089.284	241.521	-1852.646	1089.284	241.521	-1842.86	1010.574	408.751	-1836.115	994.173	70.624	-1917.778	737.562	488.552	-1905.703	716.783	31.306	-1848.652	502.585	502.929	-1809.583	495.185	50.247	-1856.24	529.743	272.502	-1862.959	535.138	357.961	-1848.789	523.761	177.731	-1915.457	126.294	425.842	-1916.188	111.319	162.181	-2031.322	-257.677	473.364	-2009.312	-277.175	150.415	-1904.127	-371.308	531.062	-1839.419	-372.563	132.085
203	10.61	-1844.509	1082.536	229.152	-1844.509	1082.536	229.152	-1832.591	1006.569	396.553	-1830.006	989.918	57.812	-1906.775	735.168	478.995	-1899.007	712.735	23.11	-1833.944	501.922	489.109	-1799.919	493.504	44.181	-1843.743	524.942	263.438	-1847.597	530.94	348.755	-1839.47	518.291	168.824	-1890.083	123.45	423.174	-1913.832	108.265	158.155	-2024.595	-252.655	473.326	-2012.361	-277.685	151.718	-1903.578	-372.654	529.587	-1842.306	-371.082	131.478
204	10.657	-1838.511	1082.159	223.504	-1838.511	1082.159	223.504	-1828.201	1006.194	391.594	-1821.4	986.907	53.22	-1900.733	734.674	477.178	-1903.429	712.46	20.299	-1824.944	501.928	489	-1805.406	492.424	43.492	-1839.443	523.619	260.443	-1844.536	529.919	345.849	-1833.795	516.632	165.731	-1869.205	119.892	419.114	-1910.153	106.129	154.321	-2020.423	-250.442	471.175	-2011.687	-279.878	147.718	-1901.53	-372.405	528.889	-1838.908	-369.87	131.734
205	10.702	-1833.819	1081.696	217.444	-1833.819	1081.696	217.444	-1822.871	1004.476	384.788	-1819.731	987.409	46.425	-1893.494	732.58	470.069	-1899.446	712.305	15.12	-1817.938	499.998	483.006	-1797.625	493.695	33.074	-1832.776	523.591	252.673	-1836.356	529.932	338.093	-1828.806	516.559	157.947	-1846.426	120.763	417.674	-1905.926	106.427	149.443	-2011.62	-242.631	473.819	-2006.672	-279.534	145.444	-1899.368	-372.302	527.497	-1837.281	-375.789	131.493
206	10.748	-1823.708	1082.996	201.998	-1823.708	1082.996	201.998	-1812.542	1004.997	369.491	-1810.717	995.581	28.006	-1878.316	730.428	451.979	-1882.423	718.028	-6.029	-1799.754	498.141	460.45	-1783.303	497.899	14.551	-1819.833	523.621	239.396	-1821.716	530.28	325.011	-1817.746	516.237	144.453	-1792.748	124.162	418.556	-1898.458	105.911	140.447	-1985.802	-226.682	471.081	-2003.902	-279.606	139.701	-1895.493	-372.058	527.032	-1835.25	-378.42	130.115
207	10.794	-1815.916	1081.761	193.763	-1815.916	1081.761	193.763	-1803.312	1006.57	363.08	-1806.476	992.672	19.443	-1872.79	731.839	446.762	-1880.856	714.189	-12.333	-1792.943	498.675	449.566	-1777.538	494.71	7.521	-1817.948	520.265	236.863	-1818.794	527.97	322.797	-1817.009	511.719	141.564	-1757.623	121.546	407.58	-1899.215	99.756	137.205	-1967.725	-219.898	469.869	-2002.321	-288.271	136.008	-1880.245	-367.637	526.756	-1827.336	-377.782	131.946
208	10.84	-1801.163	1079.187	184.131	-1801.163	1079.187	184.131	-1788.572	1002.281	353.483	-1796.97	988.67	9.024	-1853.047	725.237	437.916	-1870.642	709.763	-30.774	-1766.671	493.453	429.312	-1765.875	489.588	-13.929	-1804.045	514.647	221.741	-1801.3	521.345	308.083	-1807.09	507.219	125.991	-1682.78	128.977	406.008	-1895.488	94.757	131.694	-1919.895	-199.409	449.901	-2004.984	-293.211	138.12	-1863.133	-358.867	515.791	-1827.582	-379.536	131.089
209	10.885	-1794.634	1079.892	178.683	-1794.634	1079.892	178.683	-1781.854	1002.305	348.298	-1788.046	986.808	4.466	-1843.412	724.716	434.779	-1870.657	709.761	-34.194	-1753.884	493.789	424.105	-1764.899	489.826	-14.86	-1794.752	514.44	218.056	-1790.488	521.108	304.479	-1799.481	507.044	122.216	-1659.644	130.433	396.215	-1891.413	94.706	130.7	-1897.468	-198.732	436.383	-2005.18	-292.652	139.952	-1833.115	-353.012	508.169	-1827.732	-379.532	132.042
210	10.931	-1783.312	1077.772	173.814	-1783.312	1077.772	173.814	-1769.879	1001.711	343.658	-1779.286	984.561	0.153	-1829.191	725.995	435.706	-1862.54	708.247	-38.476	-1733.572	498.049	424.041	-1757.135	488.493	-20.728	-1785.879	513.272	216.781	-1780.256	520.402	302.935	-1792.116	505.366	121.24	-1637.672	133.503	389.589	-1885.811	94.171	128.485	-1868.117	-200.221	427.746	-2002.957	-291.451	136.789	-1791.194	-351.31	492.819	-1826.711	-380.172	131.7
211	10.979	-1761.762	1078.678	166.239	-1761.762	1078.678	166.239	-1745.955	1000.327	335.028	-1759.908	980.121	-5.139	-1808.814	727.546	432.621	-1849.501	705.316	-38.422	-1712.786	500.052	419.336	-1745.474	485.279	-18.566	-1764.497	514.908	213.861	-1754.865	523.022	299.509	-1775.179	505.908	118.88	-1601.4	138.258	374.892	-1874.779	96.445	127.812	-1787.786	-221.488	414.13	-1998.247	-286.859	137.735	-1677.092	-350.566	477.52	-1824.074	-378.859	127.515
212	11.024	-1749.383	1079.099	164.545	-1749.383	1079.099	164.545	-1733.902	1002.028	333.722	-1748.266	981.097	-7.09	-1797.43	729.315	431.026	-1835.99	705.717	-40.47	-1697.754	503.347	418.83	-1737.048	483.673	-17.379	-1753.967	515.712	217.088	-1745.682	525.183	302.734	-1763.154	505.21	122.111	-1586.821	141.172	370.259	-1867.823	96.994	128.967	-1731.404	-236.529	416.285	-1996.054	-284.773	136.697	-1609.557	-360.416	468.58	-1822.985	-378.941	127.754
213	11.069	-1734.656	1077.788	165.806	-1734.656	1077.788	165.806	-1719.769	1000.694	334.421	-1735.168	977.927	-3.924	-1783.076	728.58	429.834	-1822.874	704.238	-40.706	-1687.721	501.826	418.198	-1727.683	482.022	-14.301	-1741.291	516.831	221.211	-1731.258	526.403	306.298	-1752.417	506.215	126.852	-1575.648	141.526	365.167	-1860.406	100.615	130.827	-1677.234	-248.022	412.679	-1990.414	-278.847	136.132	-1542.999	-362.985	450.417	-1823.782	-382.583	128.716
214	11.115	-1704.908	1071.872	169.78	-1704.908	1071.872	169.78	-1685.368	993.727	336.651	-1707.181	973.064	0.195	-1756.338	724.068	430.492	-1797.621	701.695	-39.227	-1665.35	496.493	417.876	-1708.894	477.933	-11.114	-1713.866	512.826	225.028	-1703.162	522.643	309.705	-1725.736	501.938	131.124	-1566.354	131.924	366.488	-1844.052	100.718	132.864	-1566.28	-269.411	412.602	-1984.359	-273.604	136.487	-1409.812	-357.258	427.979	-1823.041	-384.186	128.404
215	11.163	-1685.894	1065.331	172.555	-1685.894	1065.331	172.555	-1666.726	988.923	339.135	-1692.511	970.472	2.033	-1740	721.258	433.494	-1784.334	700.669	-37.099	-1649.047	494.659	420.732	-1701.06	475.707	-9.628	-1698.941	508.334	225.849	-1686.626	517.844	310.017	-1712.598	497.788	132.509	-1561.098	124.887	366.025	-1837.211	100.107	134.363	-1514.286	-272.411	410.182	-1984.384	-269.983	136.754	-1349.646	-338.821	436.226	-1826.92	-384.733	128.318
216	11.207	-1647.36	1054.516	187.305	-1647.36	1054.516	187.305	-1626.654	983.977	354.739	-1656.75	965.874	15.405	-1703.822	715.785	441.191	-1754.897	700.395	-30.456	-1616.24	488.369	439.507	-1666.54	477.959	-5.342	-1669.655	498.904	233.507	-1657.626	506.085	317.663	-1682.995	490.94	140.182	-1534.646	112.545	364.322	-1820.22	98.875	139.493	-1442.846	-275.763	405.753	-1978.773	-265.068	140.391	-1271.183	-325.316	413.563	-1824.82	-383.095	128.028
217	11.253	-1626.887	1051.31	197.016	-1626.887	1051.31	197.016	-1605.753	976.446	362.975	-1639.767	962.776	24.74	-1685.247	708.034	447.298	-1740.716	698.505	-23.22	-1599.288	479.86	442.643	-1654.133	475.147	1.496	-1650.884	495.05	238.541	-1637.991	501.754	322.668	-1665.182	487.616	145.246	-1515.187	107.306	364.438	-1809.558	97.836	141.444	-1422.567	-281.541	401.477	-1976.55	-262.614	139.621	-1249.795	-327.266	410.867	-1826.083	-385.227	126.839
218	11.303	-1606.667	1048.129	205.546	-1606.667	1048.129	205.546	-1585.838	970.26	370.453	-1623.134	961.439	32.63	-1664.625	701.389	454.119	-1720.769	695.451	-12.88	-1574.005	475.266	441.973	-1637.929	470.586	11.332	-1632.25	491.799	245.13	-1617.41	498.339	328.961	-1648.708	484.547	152.164	-1498.775	102.097	366.144	-1798.496	96.788	145.681	-1412.727	-288.701	398.875	-1970.813	-261.187	141.147	-1241.139	-339.599	401.158	-1822.019	-385.809	127.804
219	11.366	-1555.48	1040.245	235.266	-1555.48	1040.245	235.266	-1539.439	963.43	400.398	-1576.987	960.576	60.143	-1603.578	691.157	484.621	-1681.911	699.602	4.613	-1519.063	463.251	467.407	-1604.313	473.044	28.177	-1586.309	484.267	264.042	-1571.835	489.302	347.96	-1602.36	478.684	170.98	-1466.219	88.571	368.043	-1765.461	96.957	156.946	-1394.119	-305.705	383.707	-1957.766	-250.058	144.132	-1226.199	-365.195	399.274	-1821.256	-387.638	129.497
220	11.426	-1508.642	1049.785	260.992	-1508.642	1049.785	260.992	-1488.791	965.291	422.894	-1529.888	967.708	85.497	-1568.42	692.332	492.884	-1638.379	705.63	39.275	-1475.346	467.48	471.862	-1561.794	477.121	49.207	-1536.941	491.884	276.392	-1523.158	494.929	360.728	-1552.226	488.508	182.867	-1433.603	89.068	375.543	-1705.455	101.925	162.63	-1377.32	-308.945	384.577	-1934.833	-222.619	143.338	-1216.441	-384.559	407.627	-1823.562	-381.771	127.631
